<svg width="24" height="24" viewBox="0 0 24 24" fill="none" xmlns="http://www.w3.org/2000/svg">
<path d="M23.375 21.4062L16.5894 14.6195C17.6829 13.1168 18.2712 11.3057 18.2694 9.44719C18.2694 4.58274 14.3116 0.625 9.44719 0.625C4.58274 0.625 0.625 4.58274 0.625 9.44719C0.625 14.3116 4.58274 18.2694 9.44719 18.2694C11.3057 18.2712 13.1168 17.6829 14.6195 16.5894L21.4062 23.375L23.375 21.4062ZM9.44719 15.483C8.25325 15.4832 7.0861 15.1292 6.09333 14.466C5.10057 13.8027 4.32678 12.86 3.86983 11.7569C3.41288 10.6539 3.2933 9.44013 3.5262 8.26913C3.75909 7.09813 4.33402 6.0225 5.17826 5.17826C6.0225 4.33402 7.09813 3.75909 8.26913 3.5262C9.44013 3.2933 10.6539 3.41288 11.7569 3.86983C12.86 4.32678 13.8027 5.10057 14.466 6.09333C15.1292 7.0861 15.4832 8.25325 15.483 9.44719C15.4812 11.0474 14.8446 12.5816 13.7131 13.7131C12.5816 14.8446 11.0474 15.4812 9.44719 15.483Z" fill="white"/>
</svg>
