<svg width="261" height="61" viewBox="0 0 261 61" fill="none" xmlns="http://www.w3.org/2000/svg">
<path d="M0 0H261V61H0V0Z" fill="#E0DD4D"/>
<path d="M82.1688 43.7703C80.7847 43.7703 79.7348 43.435 79.0189 42.7644C78.303 42.0698 77.945 40.9321 77.945 39.3514V19.1967H81.8466V38.9921C81.8466 39.6627 81.9659 40.1178 82.2046 40.3573C82.4432 40.5968 82.8011 40.7166 83.2784 40.7166C83.8511 40.7166 84.3999 40.6447 84.9249 40.501V43.3392C84.4715 43.5068 84.0301 43.6146 83.6005 43.6625C83.1949 43.7344 82.7176 43.7703 82.1688 43.7703Z" fill="white"/>
<path d="M96.5679 43.7703C93.6089 43.7703 91.318 43.0398 89.6954 41.5788C88.0727 40.1178 87.2613 37.8784 87.2613 34.8606C87.2613 32.1302 87.9534 29.9746 89.3374 28.3938C90.7215 26.8131 92.8214 26.0227 95.6372 26.0227C98.2144 26.0227 100.147 26.7053 101.436 28.0705C102.748 29.4117 103.405 31.1482 103.405 33.2798V36.4413H90.9839C91.1749 38.0939 91.7714 39.2316 92.7737 39.8543C93.7759 40.4771 95.3031 40.7884 97.3553 40.7884C98.2144 40.7884 99.0973 40.7046 100.004 40.5369C100.911 40.3693 101.698 40.1537 102.367 39.8903V42.7644C101.603 43.0997 100.72 43.3512 99.7178 43.5188C98.7394 43.6865 97.6894 43.7703 96.5679 43.7703ZM90.9839 33.8906H99.9683V32.705C99.9683 31.5314 99.6462 30.6213 99.0019 29.9746C98.3576 29.304 97.2718 28.9686 95.7446 28.9686C93.931 28.9686 92.6782 29.3638 91.9862 30.1542C91.318 30.9446 90.9839 32.19 90.9839 33.8906Z" fill="white"/>
<path d="M115.543 43.7703C112.56 43.7703 110.305 43.0159 108.778 41.5069C107.25 39.9741 106.487 37.7706 106.487 34.8965C106.487 31.9026 107.322 29.6752 108.992 28.2142C110.687 26.7532 112.942 26.0227 115.758 26.0227C116.927 26.0227 117.905 26.1065 118.693 26.2742C119.504 26.4418 120.28 26.7053 121.019 27.0645V29.9746C119.778 29.3519 118.275 29.0405 116.509 29.0405C114.552 29.0405 113.049 29.4836 111.999 30.3698C110.949 31.232 110.424 32.7409 110.424 34.8965C110.424 36.9323 110.889 38.4293 111.82 39.3873C112.751 40.3214 114.29 40.7884 116.438 40.7884C118.132 40.7884 119.671 40.4651 121.055 39.8184V42.8003C120.268 43.1117 119.42 43.3512 118.514 43.5188C117.631 43.6865 116.64 43.7703 115.543 43.7703Z" fill="white"/>
<path d="M130.635 43.7703C128.821 43.7703 127.461 43.2913 126.554 42.3333C125.671 41.3513 125.23 40.022 125.23 38.3454V29.4357H122.724V26.3819H125.23V22.466L129.096 21.2804V26.3819H133.606L133.355 29.4357H129.096V38.1299C129.096 39.1119 129.322 39.8064 129.776 40.2136C130.229 40.5968 130.969 40.7884 131.995 40.7884C132.639 40.7884 133.319 40.6687 134.035 40.4292V43.1955C133.105 43.5787 131.971 43.7703 130.635 43.7703Z" fill="white"/>
<path d="M137.02 43.411V26.3819H140.599L140.814 28.3579C141.625 27.831 142.592 27.3519 143.713 26.9208C144.835 26.4897 145.944 26.1903 147.042 26.0227V29.0046C146.374 29.1243 145.646 29.304 144.859 29.5435C144.095 29.759 143.367 30.0105 142.675 30.2979C141.983 30.5614 141.398 30.8368 140.921 31.1242V43.411H137.02Z" fill="white"/>
<path d="M157.309 43.7703C154.255 43.7703 152.012 43.0039 150.58 41.471C149.172 39.9382 148.468 37.7467 148.468 34.8965C148.468 32.0463 149.184 29.8548 150.616 28.322C152.048 26.7891 154.279 26.0227 157.309 26.0227C160.364 26.0227 162.607 26.7891 164.039 28.322C165.47 29.8548 166.186 32.0463 166.186 34.8965C166.186 37.7467 165.47 39.9382 164.039 41.471C162.631 43.0039 160.388 43.7703 157.309 43.7703ZM157.309 40.4651C159.099 40.4651 160.364 40.034 161.104 39.1717C161.867 38.2855 162.249 36.8605 162.249 34.8965C162.249 32.9325 161.867 31.5194 161.104 30.6572C160.364 29.7949 159.099 29.3638 157.309 29.3638C155.544 29.3638 154.279 29.7949 153.515 30.6572C152.775 31.5194 152.406 32.9325 152.406 34.8965C152.406 36.8605 152.775 38.2855 153.515 39.1717C154.279 40.034 155.544 40.4651 157.309 40.4651Z" fill="white"/>
<path d="M175.463 43.7703C174.294 43.7703 173.172 43.6865 172.099 43.5188C171.049 43.3512 170.178 43.1476 169.486 42.9081V39.6028C170.297 39.9142 171.192 40.1537 172.17 40.3214C173.149 40.489 174.079 40.5729 174.962 40.5729C176.298 40.5729 177.253 40.4531 177.826 40.2136C178.398 39.9741 178.685 39.507 178.685 38.8125C178.685 38.3095 178.506 37.9143 178.148 37.6269C177.814 37.3395 177.301 37.076 176.609 36.8365C175.94 36.597 175.081 36.3096 174.031 35.9743C173.029 35.639 172.158 35.2797 171.418 34.8965C170.679 34.4893 170.106 33.9744 169.7 33.3517C169.295 32.7289 169.092 31.9146 169.092 30.9087C169.092 29.3519 169.653 28.1543 170.774 27.316C171.896 26.4538 173.697 26.0227 176.179 26.0227C177.157 26.0227 178.088 26.0945 178.971 26.2382C179.854 26.3819 180.606 26.5616 181.226 26.7771V30.0464C180.558 29.783 179.818 29.5794 179.007 29.4357C178.219 29.292 177.48 29.2201 176.788 29.2201C175.547 29.2201 174.604 29.3279 173.96 29.5435C173.339 29.759 173.029 30.1901 173.029 30.8368C173.029 31.5074 173.351 31.9865 173.996 32.2739C174.664 32.5373 175.726 32.9086 177.181 33.3876C178.518 33.7947 179.58 34.2259 180.367 34.6809C181.155 35.136 181.715 35.6869 182.049 36.3335C182.407 36.9563 182.586 37.7706 182.586 38.7765C182.586 40.4531 181.978 41.7105 180.761 42.5488C179.544 43.3631 177.778 43.7703 175.463 43.7703Z" fill="white"/>
<path d="M186.412 43.411V19.1967H190.313V28.0345C191.053 27.4358 191.936 26.9568 192.962 26.5975C193.988 26.2143 195.145 26.0227 196.434 26.0227C198.582 26.0227 200.168 26.5376 201.195 27.5675C202.221 28.5974 202.734 30.2021 202.734 32.3816V43.411H198.868V32.5613C198.868 31.244 198.582 30.3219 198.009 29.7949C197.46 29.268 196.494 29.0046 195.11 29.0046C194.25 29.0046 193.379 29.1962 192.497 29.5794C191.614 29.9387 190.886 30.4177 190.313 31.0164V43.411H186.412Z" fill="white"/>
<path d="M214.881 43.7703C211.826 43.7703 209.583 43.0039 208.152 41.471C206.744 39.9382 206.04 37.7467 206.04 34.8965C206.04 32.0463 206.756 29.8548 208.187 28.322C209.619 26.7891 211.85 26.0227 214.881 26.0227C217.935 26.0227 220.178 26.7891 221.61 28.322C223.042 29.8548 223.758 32.0463 223.758 34.8965C223.758 37.7467 223.042 39.9382 221.61 41.471C220.202 43.0039 217.959 43.7703 214.881 43.7703ZM214.881 40.4651C216.671 40.4651 217.935 40.034 218.675 39.1717C219.439 38.2855 219.82 36.8605 219.82 34.8965C219.82 32.9325 219.439 31.5194 218.675 30.6572C217.935 29.7949 216.671 29.3638 214.881 29.3638C213.115 29.3638 211.85 29.7949 211.087 30.6572C210.347 31.5194 209.977 32.9325 209.977 34.8965C209.977 36.8605 210.347 38.2855 211.087 39.1717C211.85 40.034 213.115 40.4651 214.881 40.4651Z" fill="white"/>
<path d="M227.554 43.411V19.1967H231.456V33.208L238.579 26.3819H243.053L236.145 33.2439L243.447 43.411H239.33L233.711 35.3276L231.456 37.4832V43.411H227.554Z" fill="white"/>
<path d="M31.2268 32.9793H26.2864V47.8551H21.3461V32.9793C21.3461 31.6642 21.8666 30.403 22.7931 29.473C23.7196 28.5431 24.9762 28.0207 26.2864 28.0207H31.2268V20.5828C31.2268 17.9526 32.2678 15.4301 34.1208 13.5703C35.9738 11.7105 38.487 10.6656 41.1075 10.6656H50.9882V50.3344H41.1075C38.487 50.3344 35.9738 49.2895 34.1208 47.4297C32.2678 45.5698 31.2268 43.0474 31.2268 40.4172V32.9793ZM60.8689 42.8965V47.8551C60.8689 48.5126 60.6087 49.1432 60.1454 49.6082C59.6822 50.0731 59.0539 50.3344 58.3988 50.3344H53.4584V10.6656H58.3988C59.0539 10.6656 59.6822 10.9269 60.1454 11.3918C60.6087 11.8568 60.8689 12.4874 60.8689 13.1449V18.1035H70.7496V23.0621H60.8689V37.9379H70.7496V42.8965H60.8689ZM39.8724 30.5C39.8724 31.1575 40.1327 31.7882 40.5959 32.2531C41.0592 32.7181 41.6875 32.9793 42.3426 32.9793C42.9977 32.9793 43.626 32.7181 44.0893 32.2531C44.5525 31.7882 44.8128 31.1575 44.8128 30.5C44.8128 29.8424 44.5525 29.2118 44.0893 28.7469C43.626 28.2819 42.9977 28.0207 42.3426 28.0207C41.6875 28.0207 41.0592 28.2819 40.5959 28.7469C40.1327 29.2118 39.8724 29.8424 39.8724 30.5ZM70.7496 28.0207V32.9793H63.3391V28.0207H70.7496Z" fill="black"/>
</svg>
